<svg xmlns="http://www.w3.org/2000/svg" x="0px" y="0px"
width="96" height="96"
viewBox="0 0 172 172"
style=" fill:#000000;"><g transform=""><g fill="none" fill-rule="nonzero" stroke="none" stroke-width="1" stroke-linecap="butt" stroke-linejoin="miter" stroke-miterlimit="10" stroke-dasharray="" stroke-dashoffset="0" font-family="none" font-weight="none" font-size="none" text-anchor="none" style="mix-blend-mode: normal"><path d="M0,172v-172h172v172z" fill="none"></path><path d="M86,86.86c-0.47496,0 -0.86,-0.38504 -0.86,-0.86v0c0,-0.47496 0.38504,-0.86 0.86,-0.86v0c0.47496,0 0.86,0.38504 0.86,0.86v0c0,0.47496 -0.38504,0.86 -0.86,0.86z" fill="#cccccc"></path><g><path d="M165.35292,161.465h-100.62c-6.94697,0 -12.5775,-5.63053 -12.5775,-12.5775v-75.465c0,-6.94697 5.63053,-12.5775 12.5775,-12.5775h100.62c6.94697,0 12.5775,5.63053 12.5775,12.5775v75.465c0,6.94697 -5.63053,12.5775 -12.5775,12.5775z" fill="#1e88e5"></path><path d="M165.35292,153.08h-100.62c-2.31426,0 -4.1925,-1.87824 -4.1925,-4.1925v-75.465c0,-2.31426 1.87824,-4.1925 4.1925,-4.1925h100.62c2.31426,0 4.1925,1.87824 4.1925,4.1925v75.465c0,2.31426 -1.87824,4.1925 -4.1925,4.1925z" fill="#bbdefb"></path><path d="M106.65792,90.1925l29.3475,29.3475l-13.55435,2.20945l6.68285,15.18523l-5.46702,2.43165l-6.68285,-15.18523l-10.32613,7.9364z" fill="#3f51b5"></path><rect x="16.44017" y="2.51282" transform="scale(4.1925,4.1925)" width="5" height="2" fill="#3f51b5"></rect><rect x="7.44017" y="2.51282" transform="scale(4.1925,4.1925)" width="5" height="2" fill="#3f51b5"></rect><rect x="7.44017" y="24.51282" transform="scale(4.1925,4.1925)" width="5" height="2" fill="#3f51b5"></rect><rect x="-0.55983" y="11.51282" transform="scale(4.1925,4.1925)" width="2" height="5" fill="#3f51b5"></rect><rect x="27.44017" y="11.51282" transform="scale(4.1925,4.1925)" width="2" height="3" fill="#3f51b5"></rect><path d="M6.03792,10.535h8.385v8.385h-8.385v12.5775h-8.385v-12.5775v-8.385z" fill="#3f51b5"></path><path d="M-2.34708,102.77v-12.5775h8.385v12.5775h8.385v8.385h-8.385h-8.385z" fill="#3f51b5"></path><path d="M123.42792,18.92v12.5775h-8.385v-12.5775h-8.385v-8.385h8.385h8.385z" fill="#3f51b5"></path></g><path d="" fill="none"></path></g></g></svg>